ffmpeg version N-82167-g5e96558 Copyright (c) 2000-2016 the FFmpeg developers
  built with gcc 5.4.0 (Ubuntu 5.4.0-6ubuntu1~16.04.2) 20160609
  configuration: --prefix=/root/ffmpeg_build --pkg-config-flags=--static --extra-cflags=-I/root/ffmpeg_build/include --extra-ldflags=-L/root/ffmpeg_build/lib --bindir=/root/bin --enable-gpl --enable-libass --enable-libfdk-aac --enable-libfreetype --enable-libmp3lame --enable-libopus --enable-libtheora --enable-libvorbis --enable-libx264 --enable-libx265 --enable-nonfree
  libavutil      55. 35.100 / 55. 35.100
  libavcodec     57. 65.100 / 57. 65.100
  libavformat    57. 57.100 / 57. 57.100
  libavdevice    57.  2.100 / 57.  2.100
  libavfilter     6. 66.100 /  6. 66.100
  libswscale      4.  3.100 /  4.  3.100
  libswresample   2.  4.100 /  2.  4.100
  libpostproc    54.  2.100 / 54.  2.100
Input #0, matroska,webm, from '/media/yubikiri/bot/queue/3AnimePahe_Detective_Conan_-_033_720p_Fansub.mkv':
  Metadata:
    title           : 3|Text||0|0
    ENCODER         : Lavf57.57.100
  Duration: 00:24:28.05, start: 0.000000, bitrate: 1048 kb/s
    Stream #0:0: Video: mpeg4 (Simple Profile), yuv420p, 640x480 [SAR 1:1 DAR 4:3], 23.98 fps, 23.98 tbr, 1k tbn, 23.98 tbc (default)
    Metadata:
      DURATION        : 00:24:28.052000000
    Stream #0:1: Audio: mp3, 48000 Hz, stereo, s16p, 128 kb/s (default)
    Metadata:
      DURATION        : 00:24:28.008000000
[libx264 @ 0x3c15080] using SAR=1/1
[libx264 @ 0x3c15080] using cpu capabilities: MMX2 SSE2Fast SSSE3 SSE4.2 AVX FMA3 AVX2 LZCNT BMI2
[libx264 @ 0x3c15080] profile High, level 3.1
[libx264 @ 0x3c15080] 264 - core 148 r2643 5c65704 - H.264/MPEG-4 AVC codec - Copyleft 2003-2015 - http://www.videolan.org/x264.html - options: cabac=1 ref=8 deblock=1:1:1 analyse=0x3:0x133 me=umh subme=7 psy=1 psy_rd=0.00:0.00 mixed_ref=1 me_range=8 chroma_me=1 trellis=0 8x8dct=1 cqm=0 deadzone=21,11 fast_pskip=1 chroma_qp_offset=0 threads=8 lookahead_threads=2 sliced_threads=0 nr=0 decimate=1 interlaced=0 bluray_compat=0 constrained_intra=0 bframes=3 b_pyramid=2 b_adapt=2 b_bias=0 direct=1 weightb=1 open_gop=0 weightp=2 keyint=240 keyint_min=24 scenecut=40 intra_refresh=0 rc_lookahead=60 rc=crf mbtree=1 crf=27.0 qcomp=0.60 qpmin=0 qpmax=69 qpstep=4 ip_ratio=1.40 aq=1:1.00
[libfdk_aac @ 0x3b9c940] Note, the VBR setting is unsupported and only works with some parameter combinations
Output #0, mp4, to '/media/yubikiri/bot/queue/3AnimePahe_Detective_Conan_-_033_720p_Fansub.mkv_encoded.mp4':
  Metadata:
    encoder         : Lavf57.57.100
    Stream #0:0: Video: h264 (libx264) ([33][0][0][0] / 0x0021), yuv420p, 640x480 [SAR 1:1 DAR 4:3], q=-1--1, 23.98 fps, 11988 tbn, 23.98 tbc (default)
    Metadata:
      encoder         : Lavc57.65.100 libx264
    Side data:
      cpb: bitrate max/min/avg: 0/0/0 buffer size: 0 vbv_delay: -1
    Stream #0:1: Audio: aac (libfdk_aac) (HE-AACv2) ([64][0][0][0] / 0x0040), 48000 Hz, stereo, s16, 48 kb/s (default)
    Metadata:
      encoder         : Lavc57.65.100 libfdk_aac
Stream mapping:
  Stream #0:0 -> #0:0 (mpeg4 (native) -> h264 (libx264))
  Stream #0:1 -> #0:1 (mp3 (native) -> aac (libfdk_aac))
Press [q] to stop, [?] for help
frame=  115 fps=0.0 q=32.0 size=     130kB time=00:00:04.97 bitrate= 214.6kbits/s dup=1 drop=0 speed=9.93x    frame=  179 fps=176 q=32.0 size=     335kB time=00:00:07.61 bitrate= 360.6kbits/s dup=1 drop=0 speed= 7.5x    frame=  261 fps=170 q=32.0 size=     572kB time=00:00:11.03 bitrate= 424.7kbits/s dup=1 drop=0 speed=7.17x    frame=  309 fps=149 q=32.0 size=     861kB time=00:00:13.03 bitrate= 540.9kbits/s dup=1 drop=0 speed=6.28x    frame=  375 fps=146 q=32.0 size=    1039kB time=00:00:15.80 bitrate= 538.6kbits/s dup=1 drop=0 speed=6.14x    frame=  446 fps=145 q=32.0 size=    1233kB time=00:00:18.75 bitrate= 538.5kbits/s dup=1 drop=0 speed=6.09x    frame=  521 fps=146 q=32.0 size=    1437kB time=00:00:21.86 bitrate= 538.2kbits/s dup=1 drop=0 speed=6.11x    frame=  655 fps=160 q=32.0 size=    1610kB time=00:00:27.49 bitrate= 479.5kbits/s dup=1 drop=0 speed=6.74x    frame=  749 fps=163 q=32.0 size=    1793kB time=00:00:31.38 bitrate= 468.2kbits/s dup=1 drop=0 speed=6.83x    frame=  853 fps=167 q=32.0 size=    2015kB time=00:00:35.73 bitrate= 462.0kbits/s dup=1 drop=0 speed=6.99x    frame=  953 fps=170 q=32.0 size=    2192kB time=00:00:39.91 bitrate= 449.8kbits/s dup=1 drop=0 speed=7.11x    frame= 1022 fps=167 q=32.0 size=    2357kB time=00:00:42.77 bitrate= 451.4kbits/s dup=1 drop=0 speed=6.98x    frame= 1144 fps=172 q=32.0 size=    2549kB time=00:00:47.89 bitrate= 436.0kbits/s dup=1 drop=0 speed=7.22x    frame= 1227 fps=172 q=32.0 size=    2686kB time=00:00:51.35 bitrate= 428.5kbits/s dup=1 drop=0 speed= 7.2x    frame= 1291 fps=169 q=32.0 size=    2874kB time=00:00:53.99 bitrate= 436.0kbits/s dup=1 drop=0 speed=7.06x    frame= 1360 fps=167 q=32.0 size=    3077kB time=00:00:56.89 bitrate= 443.1kbits/s dup=1 drop=0 speed=6.97x    frame= 1436 fps=166 q=32.0 size=    3241kB time=00:01:00.05 bitrate= 442.1kbits/s dup=1 drop=0 speed=6.93x    frame= 1514 fps=165 q=32.0 size=    3414kB time=00:01:03.29 bitrate= 441.9kbits/s dup=1 drop=0 speed= 6.9x    frame= 1610 fps=166 q=32.0 size=    3607kB time=00:01:07.30 bitrate= 439.1kbits/s dup=1 drop=0 speed=6.96x    frame= 1670 fps=164 q=32.0 size=    3818kB time=00:01:09.82 bitrate= 447.9kbits/s dup=1 drop=0 speed=6.86x    frame= 1747 fps=164 q=32.0 size=    3991kB time=00:01:13.02 bitrate= 447.7kbits/s dup=1 drop=0 speed=6.84x    frame= 1808 fps=162 q=32.0 size=    4184kB time=00:01:15.58 bitrate= 453.5kbits/s dup=1 drop=0 speed=6.76x    frame= 1871 fps=160 q=32.0 size=    4386kB time=00:01:18.18 bitrate= 459.5kbits/s dup=1 drop=0 speed=6.69x    frame= 1931 fps=158 q=32.0 size=    4537kB time=00:01:20.70 bitrate= 460.5kbits/s dup=1 drop=0 speed=6.62x    frame= 1986 fps=156 q=32.0 size=    4693kB time=00:01:23.00 bitrate= 463.2kbits/s dup=1 drop=0 speed=6.54x    frame= 2043 fps=155 q=32.0 size=    4864kB time=00:01:25.35 bitrate= 466.8kbits/s dup=1 drop=0 speed=6.47x    frame= 2122 fps=155 q=32.0 size=    5003kB time=00:01:28.64 bitrate= 462.3kbits/s dup=1 drop=0 speed=6.47x    frame= 2201 fps=155 q=32.0 size=    5127kB time=00:01:31.96 bitrate= 456.7kbits/s dup=1 drop=0 speed=6.48x    frame= 2395 fps=163 q=32.0 size=    5255kB time=00:01:40.07 bitrate= 430.2kbits/s dup=1 drop=0 speed=6.81x    frame= 2441 fps=161 q=32.0 size=    5367kB time=00:01:41.99 bitrate= 431.1kbits/s dup=1 drop=0 speed=6.71x    frame= 2512 fps=160 q=32.0 size=    5519kB time=00:01:44.93 bitrate= 430.8kbits/s dup=1 drop=0 speed=6.69x    frame= 2588 fps=160 q=32.0 size=    5713kB time=00:01:48.09 bitrate= 432.9kbits/s dup=1 drop=0 speed=6.67x    frame= 2661 fps=159 q=32.0 size=    5886kB time=00:01:51.12 bitrate= 433.9kbits/s dup=1 drop=0 speed=6.65x    frame= 2755 fps=160 q=32.0 size=    6044kB time=00:01:55.05 bitrate= 430.4kbits/s dup=1 drop=0 speed=6.69x    frame= 2813 fps=159 q=32.0 size=    6183kB time=00:01:57.48 bitrate= 431.1kbits/s dup=1 drop=0 speed=6.63x    frame= 2860 fps=157 q=32.0 size=    6322kB time=00:01:59.48 bitrate= 433.4kbits/s dup=1 drop=0 speed=6.56x    frame= 2913 fps=156 q=32.0 size=    6425kB time=00:02:01.66 bitrate= 432.6kbits/s dup=1 drop=0 speed= 6.5x    frame= 2954 fps=154 q=32.0 size=    6605kB time=00:02:03.37 bitrate= 438.5kbits/s dup=1 drop=0 speed=6.42x    frame= 2982 fps=151 q=32.0 size=    6746kB time=00:02:04.52 bitrate= 443.8kbits/s dup=1 drop=0 speed=6.29x    frame= 3003 fps=148 q=29.0 size=    6852kB time=00:02:05.41 bitrate= 447.5kbits/s dup=1 drop=0 speed=6.17x    frame= 3033 fps=145 q=32.0 size=    7048kB time=00:02:06.65 bitrate= 455.9kbits/s dup=1 drop=0 speed=6.07x    frame= 3084 fps=144 q=32.0 size=    7206kB time=00:02:08.79 bitrate= 458.4kbits/s dup=1 drop=0 speed=6.03x    frame= 3148 fps=144 q=32.0 size=    7293kB time=00:02:11.43 bitrate= 454.5kbits/s dup=1 drop=0 speed=6.01x    frame= 3199 fps=143 q=32.0 size=    7395kB time=00:02:13.56 bitrate= 453.5kbits/s dup=1 drop=0 speed=5.97x    frame= 3255 fps=142 q=32.0 size=    7520kB time=00:02:15.91 bitrate= 453.3kbits/s dup=1 drop=0 speed=5.94x    frame= 3315 fps=142 q=32.0 size=    7621kB time=00:02:18.43 bitrate= 451.0kbits/s dup=1 drop=0 speed=5.92x    frame= 3370 fps=141 q=32.0 size=    7754kB time=00:02:20.69 bitrate= 451.5kbits/s dup=1 drop=0 speed=5.89x    frame= 3410 fps=140 q=32.0 size=    7870kB time=00:02:22.40 bitrate= 452.7kbits/s dup=1 drop=0 speed=5.84x    frame= 3479 fps=140 q=32.0 size=    7986kB time=00:02:25.25 bitrate= 450.4kbits/s dup=1 drop=0 speed=5.83x    frame= 3527 fps=139 q=32.0 size=    8095kB time=00:02:27.26 bitrate= 450.3kbits/s dup=1 drop=0 speed= 5.8x    frame= 3577 fps=138 q=32.0 size=    8180kB time=00:02:29.35 bitrate= 448.7kbits/s dup=1 drop=0 speed=5.76x    frame= 3626 fps=137 q=32.0 size=    8300kB time=00:02:31.40 bitrate= 449.1kbits/s dup=1 drop=0 speed=5.73x    frame= 3665 fps=136 q=32.0 size=    8404kB time=00:02:33.02 bitrate= 449.9kbits/s dup=1 drop=0 speed=5.68x    frame= 3704 fps=135 q=32.0 size=    8528kB time=00:02:34.64 bitrate= 451.8kbits/s dup=1 drop=0 speed=5.63x    frame= 3747 fps=134 q=32.0 size=    8619kB time=00:02:36.43 bitrate= 451.3kbits/s dup=1 drop=0 speed=5.59x    frame= 3789 fps=133 q=32.0 size=    8734kB time=00:02:38.18 bitrate= 452.3kbits/s dup=1 drop=0 speed=5.56x    frame= 3852 fps=133 q=32.0 size=    8805kB time=00:02:40.83 bitrate= 448.5kbits/s dup=1 drop=0 speed=5.55x    frame= 3898 fps=132 q=32.0 size=    8902kB time=00:02:42.75 bitrate= 448.1kbits/s dup=1 drop=0 speed=5.52x    frame= 3931 fps=131 q=32.0 size=    9006kB time=00:02:44.11 bitrate= 449.5kbits/s dup=1 drop=0 speed=5.47x    frame= 3961 fps=130 q=32.0 size=    9078kB time=00:02:45.35 bitrate= 449.8kbits/s dup=1 drop=0 speed=5.41x    frame= 4008 fps=129 q=32.0 size=    9183kB time=00:02:47.31 bitrate= 449.6kbits/s dup=1 drop=0 speed=5.39x    frame= 4058 fps=129 q=32.0 size=    9288kB time=00:02:49.40 bitrate= 449.1kbits/s dup=1 drop=0 speed=5.37x    frame= 4110 fps=128 q=32.0 size=    9408kB time=00:02:51.58 bitrate= 449.2kbits/s dup=1 drop=0 speed=5.35x    frame= 4156 fps=128 q=32.0 size=    9581kB time=00:02:53.50 bitrate= 452.4kbits/s dup=1 drop=0 speed=5.33x    frame= 4235 fps=128 q=32.0 size=    9682kB time=00:02:56.79 bitrate= 448.7kbits/s dup=1 drop=0 speed=5.34x    frame= 4311 fps=128 q=32.0 size=    9817kB time=00:02:59.99 bitrate= 446.8kbits/s dup=1 drop=0 speed=5.36x    frame= 4385 fps=129 q=32.0 size=    9945kB time=00:03:03.06 bitrate= 445.1kbits/s dup=1 drop=0 speed=5.37x    frame= 4449 fps=128 q=32.0 size=   10057kB time=00:03:05.70 bitrate= 443.6kbits/s dup=1 drop=0 speed=5.36x    frame= 4518 fps=128 q=32.0 size=   10179kB time=00:03:08.60 bitrate= 442.1kbits/s dup=1 drop=0 speed=5.36x    frame= 4588 fps=129 q=32.0 size=   10312kB time=00:03:11.51 bitrate= 441.1kbits/s dup=1 drop=0 speed=5.37x    frame= 4666 fps=129 q=32.0 size=   10442kB time=00:03:14.75 bitrate= 439.2kbits/s dup=1 drop=0 speed=5.38x    frame= 4740 fps=129 q=32.0 size=   10554kB time=00:03:17.86 bitrate= 437.0kbits/s dup=1 drop=0 speed=5.39x    frame= 4785 fps=129 q=32.0 size=   10643kB time=00:03:19.74 bitrate= 436.5kbits/s dup=1 drop=0 speed=5.37x    frame= 4827 fps=128 q=32.0 size=   10730kB time=00:03:21.49 bitrate= 436.3kbits/s dup=1 drop=0 speed=5.35x    frame= 4877 fps=128 q=32.0 size=   10817kB time=00:03:23.58 bitrate= 435.3kbits/s dup=1 drop=0 speed=5.32x    frame= 4923 fps=127 q=32.0 size=   10954kB time=00:03:25.50 bitrate= 436.6kbits/s dup=1 drop=0 speed= 5.3x    frame= 4998 fps=127 q=32.0 size=   11051kB time=00:03:28.61 bitrate= 434.0kbits/s dup=1 drop=0 speed=5.32x    frame= 5077 fps=128 q=32.0 size=   11151kB time=00:03:31.90 bitrate= 431.1kbits/s dup=1 drop=0 speed=5.33x    frame= 5145 fps=128 q=32.0 size=   11234kB time=00:03:34.76 bitrate= 428.5kbits/s dup=1 drop=0 speed=5.34x    frame= 5199 fps=128 q=32.0 size=   11365kB time=00:03:37.02 bitrate= 429.0kbits/s dup=1 drop=0 speed=5.33x    frame= 5256 fps=127 q=32.0 size=   11470kB time=00:03:39.37 bitrate= 428.3kbits/s dup=1 drop=0 speed=5.32x    frame= 5301 fps=127 q=32.0 size=   11593kB time=00:03:41.24 bitrate= 429.3kbits/s dup=1 drop=0 speed= 5.3x    frame= 5328 fps=126 q=32.0 size=   11692kB time=00:03:42.40 bitrate= 430.7kbits/s dup=1 drop=0 speed=5.26x    frame= 5370 fps=125 q=32.0 size=   11791kB time=00:03:44.15 bitrate= 430.9kbits/s dup=1 drop=0 speed=5.24x    frame= 5410 fps=125 q=29.0 size=   11902kB time=00:03:45.77 bitrate= 431.8kbits/s dup=1 drop=0 speed=5.21x    frame= 5445 fps=124 q=32.0 size=   12045kB time=00:03:47.26 bitrate= 434.2kbits/s dup=1 drop=0 speed=5.19x    frame= 5496 fps=124 q=32.0 size=   12206kB time=00:03:49.39 bitrate= 435.9kbits/s dup=1 drop=0 speed=5.18x    frame= 5539 fps=124 q=29.0 size=   12370kB time=00:03:51.19 bitrate= 438.3kbits/s dup=1 drop=0 speed=5.16x    frame= 5595 fps=123 q=32.0 size=   12531kB time=00:03:53.53 bitrate= 439.6kbits/s dup=1 drop=0 speed=5.15x    frame= 5677 fps=124 q=32.0 size=   12614kB time=00:03:56.90 bitrate= 436.2kbits/s dup=1 drop=0 speed=5.17x    frame= 5758 fps=124 q=32.0 size=   12713kB time=00:04:00.32 bitrate= 433.4kbits/s dup=1 drop=0 speed=5.19x    frame= 5812 fps=124 q=29.0 size=   12834kB time=00:04:02.58 bitrate= 433.4kbits/s dup=1 drop=0 speed=5.18x    frame= 5851 fps=124 q=32.0 size=   12994kB time=00:04:04.20 bitrate= 435.9kbits/s dup=1 drop=0 speed=5.16x    frame= 5879 fps=123 q=32.0 size=   13155kB time=00:04:05.35 bitrate= 439.2kbits/s dup=1 drop=0 speed=5.12x    frame= 5918 fps=122 q=32.0 size=   13293kB time=00:04:06.97 bitrate= 440.9kbits/s dup=1 drop=0 speed= 5.1x    frame= 5971 fps=122 q=32.0 size=   13422kB time=00:04:09.19 bitrate= 441.2kbits/s dup=1 drop=0 speed=5.09x    frame= 6022 fps=122 q=32.0 size=   13520kB time=00:04:11.32 bitrate= 440.7kbits/s dup=1 drop=0 speed=5.08x    frame= 6082 fps=122 q=32.0 size=   13656kB time=00:04:13.80 bitrate= 440.8kbits/s dup=1 drop=0 speed=5.08x    frame= 6142 fps=122 q=32.0 size=   13783kB time=00:04:16.36 bitrate= 440.4kbits/s dup=1 drop=0 speed=5.08x    frame= 6210 fps=122 q=32.0 size=   13897kB time=00:04:19.17 bitrate= 439.2kbits/s dup=1 drop=0 speed=5.09x    frame= 6263 fps=122 q=32.0 size=   13979kB time=00:04:21.39 bitrate= 438.1kbits/s dup=1 drop=0 speed=5.08x    frame= 6315 fps=122 q=32.0 size=   14065kB time=00:04:23.53 bitrate= 437.2kbits/s dup=1 drop=0 speed=5.07x    frame= 6366 fps=121 q=32.0 size=   14186kB time=00:04:25.66 bitrate= 437.4kbits/s dup=1 drop=0 speed=5.06x    frame= 6420 fps=121 q=32.0 size=   14288kB time=00:04:27.92 bitrate= 436.9kbits/s dup=1 drop=0 speed=5.06x    frame= 6476 fps=121 q=32.0 size=   14448kB time=00:04:30.27 bitrate= 437.9kbits/s dup=1 drop=0 speed=5.05x    frame= 6530 fps=121 q=32.0 size=   14664kB time=00:04:32.53 bitrate= 440.8kbits/s dup=1 drop=0 speed=5.05x    frame= 6594 fps=121 q=32.0 size=   14750kB time=00:04:35.17 bitrate= 439.1kbits/s dup=1 drop=0 speed=5.05x    frame= 6651 fps=121 q=32.0 size=   14866kB time=00:04:37.56 bitrate= 438.8kbits/s dup=1 drop=0 speed=5.04x    frame= 6709 fps=121 q=32.0 size=   14975kB time=00:04:40.00 bitrate= 438.1kbits/s dup=1 drop=0 speed=5.04x    frame= 6771 fps=121 q=32.0 size=   15100kB time=00:04:42.56 bitrate= 437.8kbits/s dup=1 drop=0 speed=5.04x    frame= 6835 fps=121 q=32.0 size=   15256kB time=00:04:45.24 bitrate= 438.1kbits/s dup=1 drop=0 speed=5.04x    frame= 6902 fps=121 q=32.0 size=   15366kB time=00:04:48.02 bitrate= 437.0kbits/s dup=1 drop=0 speed=5.05x    frame= 6973 fps=121 q=32.0 size=   15465kB time=00:04:51.00 bitrate= 435.3kbits/s dup=1 drop=0 speed=5.06x    frame= 7071 fps=122 q=32.0 size=   15629kB time=00:04:55.06 bitrate= 433.9kbits/s dup=1 drop=0 speed=5.08x    frame= 7156 fps=122 q=32.0 size=   15755kB time=00:04:58.64 bitrate= 432.2kbits/s dup=1 drop=0 speed= 5.1x    frame= 7214 fps=122 q=32.0 size=   15975kB time=00:05:01.03 bitrate= 434.7kbits/s dup=1 drop=0 speed=5.09x    frame= 7307 fps=123 q=32.0 size=   16070kB time=00:05:04.91 bitrate= 431.7kbits/s dup=1 drop=0 speed=5.12x    frame= 7372 fps=123 q=32.0 size=   16218kB time=00:05:07.64 bitrate= 431.8kbits/s dup=1 drop=0 speed=5.12x    frame= 7479 fps=123 q=32.0 size=   16404kB time=00:05:12.08 bitrate= 430.6kbits/s dup=1 drop=0 speed=5.15x    frame= 7568 fps=124 q=32.0 size=   16513kB time=00:05:15.79 bitrate= 428.4kbits/s dup=1 drop=0 speed=5.17x    frame= 7626 fps=124 q=32.0 size=   16698kB time=00:05:18.23 bitrate= 429.9kbits/s dup=1 drop=0 speed=5.16x    frame= 7699 fps=124 q=32.0 size=   16842kB time=00:05:21.25 bitrate= 429.5kbits/s dup=1 drop=0 speed=5.17x    frame= 7776 fps=124 q=32.0 size=   16943kB time=00:05:24.45 bitrate= 427.8kbits/s dup=1 drop=0 speed=5.18x    frame= 7866 fps=124 q=32.0 size=   17139kB time=00:05:28.25 bitrate= 427.7kbits/s dup=1 drop=0 speed=5.19x    frame= 7962 fps=125 q=32.0 size=   17295kB time=00:05:32.22 bitrate= 426.5kbits/s dup=1 drop=0 speed=5.22x    frame= 8027 fps=125 q=29.0 size=   17439kB time=00:05:34.95 bitrate= 426.5kbits/s dup=1 drop=0 speed=5.22x    frame= 8082 fps=125 q=32.0 size=   17579kB time=00:05:37.25 bitrate= 427.0kbits/s dup=1 drop=0 speed=5.21x    frame= 8132 fps=125 q=32.0 size=   17669kB time=00:05:39.35 bitrate= 426.5kbits/s dup=1 drop=0 speed= 5.2x    frame= 8194 fps=125 q=32.0 size=   17798kB time=00:05:41.91 bitrate= 426.4kbits/s dup=1 drop=0 speed= 5.2x    frame= 8276 fps=125 q=32.0 size=   17918kB time=00:05:45.32 bitrate= 425.1kbits/s dup=1 drop=0 speed=5.21x    frame= 8337 fps=125 q=32.0 size=   18057kB time=00:05:47.88 bitrate= 425.2kbits/s dup=1 drop=0 speed=5.21x    frame= 8421 fps=125 q=32.0 size=   18221kB time=00:05:51.42 bitrate= 424.7kbits/s dup=1 drop=0 speed=5.23x    frame= 8493 fps=125 q=32.0 size=   18322kB time=00:05:54.36 bitrate= 423.5kbits/s dup=1 drop=0 speed=5.23x    frame= 8562 fps=125 q=32.0 size=   18444kB time=00:05:57.27 bitrate= 422.9kbits/s dup=1 drop=0 speed=5.23x    frame= 8618 fps=125 q=32.0 size=   18556kB time=00:05:59.57 bitrate= 422.8kbits/s dup=1 drop=0 speed=5.23x    frame= 8684 fps=125 q=32.0 size=   18736kB time=00:06:02.34 bitrate= 423.6kbits/s dup=1 drop=0 speed=5.23x    frame= 8760 fps=125 q=32.0 size=   18886kB time=00:06:05.50 bitrate= 423.3kbits/s dup=1 drop=0 speed=5.23x    frame= 8840 fps=126 q=32.0 size=   19019kB time=00:06:08.87 bitrate= 422.4kbits/s dup=1 drop=0 speed=5.25x    frame= 8897 fps=126 q=32.0 size=   19116kB time=00:06:11.22 bitrate= 421.9kbits/s dup=1 drop=0 speed=5.24x    frame= 8953 fps=125 q=32.0 size=   19220kB time=00:06:13.56 bitrate= 421.5kbits/s dup=1 drop=0 speed=5.24x    frame= 9026 fps=126 q=32.0 size=   19376kB time=00:06:16.59 bitrate= 421.5kbits/s dup=1 drop=0 speed=5.24x    frame= 9100 fps=126 q=32.0 size=   19502kB time=00:06:19.71 bitrate= 420.7kbits/s dup=1 drop=0 speed=5.25x    frame= 9188 fps=126 q=32.0 size=   19626kB time=00:06:23.38 bitrate= 419.4kbits/s dup=1 drop=0 speed=5.26x    frame= 9256 fps=126 q=32.0 size=   19792kB time=00:06:26.19 bitrate= 419.8kbits/s dup=1 drop=0 speed=5.26x    frame= 9320 fps=126 q=32.0 size=   19926kB time=00:06:28.88 bitrate= 419.8kbits/s dup=1 drop=0 speed=5.26x    frame= 9377 fps=126 q=32.0 size=   20030kB time=00:06:31.23 bitrate= 419.4kbits/s dup=1 drop=0 speed=5.26x    frame= 9434 fps=126 q=32.0 size=   20150kB time=00:06:33.66 bitrate= 419.3kbits/s dup=1 drop=0 speed=5.26x    frame= 9519 fps=126 q=32.0 size=   20265kB time=00:06:37.16 bitrate= 418.0kbits/s dup=1 drop=0 speed=5.27x    frame= 9593 fps=126 q=32.0 size=   20410kB time=00:06:40.27 bitrate= 417.7kbits/s dup=1 drop=0 speed=5.27x    frame= 9661 fps=126 q=32.0 size=   20556kB time=00:06:43.09 bitrate= 417.8kbits/s dup=1 drop=0 speed=5.28x    frame= 9737 fps=127 q=32.0 size=   20653kB time=00:06:46.25 bitrate= 416.5kbits/s dup=1 drop=0 speed=5.28x    frame= 9801 fps=127 q=32.0 size=   20779kB time=00:06:48.93 bitrate= 416.2kbits/s dup=1 drop=0 speed=5.28x    frame= 9898 fps=127 q=32.0 size=   20897kB time=00:06:53.03 bitrate= 414.5kbits/s dup=1 drop=0 speed= 5.3x    frame= 9961 fps=127 q=32.0 size=   20996kB time=00:06:55.59 bitrate= 413.9kbits/s dup=1 drop=0 speed= 5.3x    frame=10048 fps=127 q=32.0 size=   21121kB time=00:06:59.26 bitrate= 412.7kbits/s dup=1 drop=0 speed=5.31x    frame=10125 fps=127 q=32.0 size=   21242kB time=00:07:02.42 bitrate= 411.9kbits/s dup=1 drop=0 speed=5.32x    frame=10183 fps=127 q=32.0 size=   21399kB time=00:07:04.85 bitrate= 412.6kbits/s dup=1 drop=0 speed=5.32x    frame=10224 fps=127 q=32.0 size=   21569kB time=00:07:06.56 bitrate= 414.2kbits/s dup=1 drop=0 speed= 5.3x    frame=10263 fps=127 q=32.0 size=   21694kB time=00:07:08.22 bitrate= 415.0kbits/s dup=1 drop=0 speed=5.28x    frame=10322 fps=127 q=32.0 size=   21811kB time=00:07:10.69 bitrate= 414.9kbits/s dup=1 drop=0 speed=5.28x    frame=10396 fps=127 q=32.0 size=   21920kB time=00:07:13.77 bitrate= 414.0kbits/s dup=1 drop=0 speed=5.29x    frame=10505 fps=127 q=32.0 size=   22056kB time=00:07:18.29 bitrate= 412.2kbits/s dup=1 drop=0 speed=5.31x    frame=10578 fps=127 q=32.0 size=   22210kB time=00:07:21.36 bitrate= 412.2kbits/s dup=1 drop=0 speed=5.32x    frame=10640 fps=127 q=32.0 size=   22366kB time=00:07:23.96 bitrate= 412.7kbits/s dup=1 drop=0 speed=5.31x    frame=10694 fps=127 q=32.0 size=   22534kB time=00:07:26.18 bitrate= 413.7kbits/s dup=1 drop=0 speed=5.31x    frame=10759 fps=127 q=32.0 size=   22681kB time=00:07:28.91 bitrate= 413.9kbits/s dup=1 drop=0 speed=5.31x    frame=10796 fps=127 q=32.0 size=   22861kB time=00:07:30.41 bitrate= 415.8kbits/s dup=1 drop=0 speed=5.29x    frame=10859 fps=127 q=32.0 size=   23022kB time=00:07:33.05 bitrate= 416.3kbits/s dup=1 drop=0 speed=5.29x    frame=10890 fps=126 q=29.0 size=   23213kB time=00:07:34.37 bitrate= 418.5kbits/s dup=1 drop=0 speed=5.27x    frame=10936 fps=126 q=32.0 size=   23402kB time=00:07:36.29 bitrate= 420.1kbits/s dup=1 drop=0 speed=5.27x    frame=10970 fps=126 q=32.0 size=   23609kB time=00:07:37.70 bitrate= 422.6kbits/s dup=1 drop=0 speed=5.25x    frame=11026 fps=126 q=32.0 size=   23759kB time=00:07:40.01 bitrate= 423.1kbits/s dup=1 drop=0 speed=5.25x    frame=11062 fps=125 q=32.0 size=   23918kB time=00:07:41.54 bitrate= 424.5kbits/s dup=1 drop=0 speed=5.23x    frame=11091 fps=125 q=32.0 size=   24084kB time=00:07:42.74 bitrate= 426.4kbits/s dup=1 drop=0 speed=5.21x    frame=11125 fps=125 q=32.0 size=   24280kB time=00:07:44.15 bitrate= 428.5kbits/s dup=1 drop=0 speed= 5.2x    frame=11156 fps=124 q=32.0 size=   24414kB time=00:07:45.47 bitrate= 429.7kbits/s dup=1 drop=0 speed=5.18x    frame=11201 fps=124 q=32.0 size=   24562kB time=00:07:47.30 bitrate= 430.6kbits/s dup=1 drop=0 speed=5.17x    frame=11248 fps=124 q=32.0 size=   24631kB time=00:07:49.31 bitrate= 429.9kbits/s dup=1 drop=0 speed=5.17x    frame=11304 fps=124 q=32.0 size=   24766kB time=00:07:51.61 bitrate= 430.2kbits/s dup=1 drop=0 speed=5.17x    frame=11367 fps=124 q=32.0 size=   24866kB time=00:07:54.26 bitrate= 429.5kbits/s dup=1 drop=0 speed=5.17x    frame=11438 fps=124 q=32.0 size=   25012kB time=00:07:57.20 bitrate= 429.4kbits/s dup=1 drop=0 speed=5.17x    frame=11499 fps=124 q=32.0 size=   25127kB time=00:07:59.76 bitrate= 429.1kbits/s dup=1 drop=0 speed=5.17x    frame=11538 fps=124 q=32.0 size=   25256kB time=00:08:01.38 bitrate= 429.8kbits/s dup=1 drop=0 speed=5.16x    frame=11581 fps=123 q=32.0 size=   25418kB time=00:08:03.17 bitrate= 430.9kbits/s dup=1 drop=0 speed=5.15x    frame=11627 fps=123 q=32.0 size=   25567kB time=00:08:05.09 bitrate= 431.8kbits/s dup=1 drop=0 speed=5.14x    frame=11701 fps=123 q=32.0 size=   25714kB time=00:08:08.17 bitrate= 431.5kbits/s dup=1 drop=0 speed=5.14x    frame=11792 fps=124 q=32.0 size=   25860kB time=00:08:11.96 bitrate= 430.6kbits/s dup=1 drop=0 speed=5.16x    frame=11903 fps=124 q=32.0 size=   25995kB time=00:08:16.61 bitrate= 428.8kbits/s dup=1 drop=0 speed=5.18x    frame=11995 fps=124 q=32.0 size=   26136kB time=00:08:20.45 bitrate= 427.8kbits/s dup=1 drop=0 speed=5.19x    frame=12054 fps=124 q=32.0 size=   26286kB time=00:08:22.93 bitrate= 428.2kbits/s dup=1 drop=0 speed=5.19x    frame=12136 fps=125 q=32.0 size=   26470kB time=00:08:26.34 bitrate= 428.3kbits/s dup=1 drop=0 speed= 5.2x    frame=12204 fps=125 q=32.0 size=   26633kB time=00:08:29.16 bitrate= 428.5kbits/s dup=1 drop=0 speed=5.19x    frame=12277 fps=125 q=32.0 size=   26802kB time=00:08:32.19 bitrate= 428.7kbits/s dup=1 drop=0 speed= 5.2x    frame=12345 fps=125 q=32.0 size=   26927kB time=00:08:35.05 bitrate= 428.3kbits/s dup=1 drop=0 speed= 5.2x    frame=12398 fps=125 q=32.0 size=   27015kB time=00:08:37.22 bitrate= 427.9kbits/s dup=1 drop=0 speed= 5.2x    frame=12477 fps=125 q=32.0 size=   27119kB time=00:08:40.55 bitrate= 426.8kbits/s dup=1 drop=0 speed= 5.2x    frame=12573 fps=125 q=32.0 size=   27221kB time=00:08:44.56 bitrate= 425.1kbits/s dup=1 drop=0 speed=5.22x    frame=12622 fps=125 q=32.0 size=   27407kB time=00:08:46.61 bitrate= 426.3kbits/s dup=1 drop=0 speed=5.21x    frame=12679 fps=125 q=32.0 size=   27571kB time=00:08:49.00 bitrate= 427.0kbits/s dup=1 drop=0 speed=5.21x    frame=12747 fps=125 q=32.0 size=   27713kB time=00:08:51.81 bitrate= 426.9kbits/s dup=1 drop=0 speed=5.21x    frame=12821 fps=125 q=32.0 size=   27797kB time=00:08:54.89 bitrate= 425.7kbits/s dup=1 drop=0 speed=5.22x    frame=12885 fps=125 q=32.0 size=   27943kB time=00:08:57.57 bitrate= 425.8kbits/s dup=1 drop=0 speed=5.22x    frame=12953 fps=125 q=32.0 size=   28054kB time=00:09:00.39 bitrate= 425.3kbits/s dup=1 drop=0 speed=5.22x    frame=13007 fps=125 q=32.0 size=   28170kB time=00:09:02.65 bitrate= 425.3kbits/s dup=1 drop=0 speed=5.21x    frame=13063 fps=125 q=32.0 size=   28262kB time=00:09:05.00 bitrate= 424.8kbits/s dup=1 drop=0 speed=5.21x    frame=13149 fps=125 q=32.0 size=   28424kB time=00:09:08.58 bitrate= 424.4kbits/s dup=1 drop=0 speed=5.22x    frame=13233 fps=125 q=32.0 size=   28544kB time=00:09:12.08 bitrate= 423.5kbits/s dup=1 drop=0 speed=5.23x    frame=13318 fps=126 q=32.0 size=   28691kB time=00:09:15.62 bitrate= 423.0kbits/s dup=1 drop=0 speed=5.24x    frame=13408 fps=126 q=32.0 size=   28790kB time=00:09:19.38 bitrate= 421.6kbits/s dup=1 drop=0 speed=5.25x    frame=13471 fps=126 q=32.0 size=   28967kB time=00:09:22.02 bitrate= 422.2kbits/s dup=1 drop=0 speed=5.25x    frame=13542 fps=126 q=32.0 size=   29076kB time=00:09:24.97 bitrate= 421.6kbits/s dup=1 drop=0 speed=5.25x    frame=13614 fps=126 q=32.0 size=   29197kB time=00:09:28.00 bitrate= 421.1kbits/s dup=1 drop=0 speed=5.25x    frame=13701 fps=126 q=32.0 size=   29362kB time=00:09:31.62 bitrate= 420.8kbits/s dup=1 drop=0 speed=5.26x    frame=13774 fps=126 q=32.0 size=   29474kB time=00:09:34.65 bitrate= 420.2kbits/s dup=1 drop=0 speed=5.26x    frame=13847 fps=126 q=32.0 size=   29582kB time=00:09:37.68 bitrate= 419.5kbits/s dup=1 drop=0 speed=5.27x    frame=13902 fps=126 q=32.0 size=   29747kB time=00:09:39.99 bitrate= 420.2kbits/s dup=1 drop=0 speed=5.26x    frame=13983 fps=126 q=32.0 size=   29895kB time=00:09:43.36 bitrate= 419.8kbits/s dup=1 drop=0 speed=5.27x    frame=14081 fps=127 q=32.0 size=   29992kB time=00:09:47.45 bitrate= 418.2kbits/s dup=1 drop=0 speed=5.28x    frame=14172 fps=127 q=32.0 size=   30108kB time=00:09:51.25 bitrate= 417.2kbits/s dup=1 drop=0 speed=5.29x    frame=14251 fps=127 q=32.0 size=   30278kB time=00:09:54.53 bitrate= 417.2kbits/s dup=1 drop=0 speed= 5.3x    frame=14338 fps=127 q=32.0 size=   30441kB time=00:09:58.16 bitrate= 416.9kbits/s dup=1 drop=0 speed=5.31x    frame=14402 fps=127 q=32.0 size=   30568kB time=00:10:00.85 bitrate= 416.8kbits/s dup=1 drop=0 speed=5.31x    frame=14457 fps=127 q=32.0 size=   30694kB time=00:10:03.15 bitrate= 416.9kbits/s dup=1 drop=0 speed= 5.3x    frame=14503 fps=127 q=32.0 size=   30797kB time=00:10:05.07 bitrate= 417.0kbits/s dup=1 drop=0 speed= 5.3x    frame=14568 fps=127 q=32.0 size=   30928kB time=00:10:07.76 bitrate= 416.9kbits/s dup=1 drop=0 speed= 5.3x    frame=14627 fps=127 q=32.0 size=   31053kB time=00:10:10.24 bitrate= 416.9kbits/s dup=1 drop=0 speed=5.29x    frame=14669 fps=127 q=32.0 size=   31172kB time=00:10:11.99 bitrate= 417.3kbits/s dup=1 drop=0 speed=5.28x    frame=14714 fps=126 q=32.0 size=   31273kB time=00:10:13.86 bitrate= 417.3kbits/s dup=1 drop=0 speed=5.28x    frame=14758 fps=126 q=32.0 size=   31391kB time=00:10:15.70 bitrate= 417.7kbits/s dup=1 drop=0 speed=5.26x    frame=14824 fps=126 q=32.0 size=   31563kB time=00:10:18.43 bitrate= 418.1kbits/s dup=1 drop=0 speed=5.26x    frame=14902 fps=126 q=32.0 size=   31730kB time=00:10:21.67 bitrate= 418.1kbits/s dup=1 drop=0 speed=5.27x    frame=14977 fps=126 q=32.0 size=   31896kB time=00:10:24.83 bitrate= 418.2kbits/s dup=1 drop=0 speed=5.27x    frame=15048 fps=126 q=32.0 size=   32036kB time=00:10:27.81 bitrate= 418.0kbits/s dup=1 drop=0 speed=5.27x    frame=15126 fps=127 q=32.0 size=   32184kB time=00:10:31.01 bitrate= 417.8kbits/s dup=1 drop=0 speed=5.28x    frame=15191 fps=127 q=32.0 size=   32329kB time=00:10:33.75 bitrate= 417.9kbits/s dup=1 drop=0 speed=5.28x    frame=15252 fps=126 q=32.0 size=   32439kB time=00:10:36.26 bitrate= 417.7kbits/s dup=1 drop=0 speed=5.28x    frame=15316 fps=127 q=32.0 size=   32547kB time=00:10:38.95 bitrate= 417.3kbits/s dup=1 drop=0 speed=5.28x    frame=15383 fps=127 q=32.0 size=   32665kB time=00:10:41.77 bitrate= 417.0kbits/s dup=1 drop=0 speed=5.28x    frame=15464 fps=127 q=32.0 size=   32804kB time=00:10:45.14 bitrate= 416.5kbits/s dup=1 drop=0 speed=5.28x    frame=15524 fps=127 q=32.0 size=   32965kB time=00:10:47.61 bitrate= 417.0kbits/s dup=1 drop=0 speed=5.28x    frame=15588 fps=127 q=32.0 size=   33097kB time=00:10:50.34 bitrate= 416.9kbits/s dup=1 drop=0 speed=5.28x    frame=15659 fps=127 q=32.0 size=   33188kB time=00:10:53.29 bitrate= 416.2kbits/s dup=1 drop=0 speed=5.29x    frame=15735 fps=127 q=32.0 size=   33311kB time=00:10:56.44 bitrate= 415.7kbits/s dup=1 drop=0 speed=5.29x    frame=15807 fps=127 q=32.0 size=   33455kB time=00:10:59.43 bitrate= 415.6kbits/s dup=1 drop=0 speed=5.29x    frame=15852 fps=127 q=32.0 size=   33573kB time=00:11:01.31 bitrate= 415.9kbits/s dup=1 drop=0 speed=5.29x    frame=15882 fps=126 q=32.0 size=   33712kB time=00:11:02.55 bitrate= 416.8kbits/s dup=1 drop=0 speed=5.28x    frame=15946 fps=126 q=32.0 size=   33851kB time=00:11:05.23 bitrate= 416.9kbits/s dup=1 drop=0 speed=5.28x    frame=15991 fps=126 q=32.0 size=   34003kB time=00:11:07.11 bitrate= 417.6kbits/s dup=1 drop=0 speed=5.27x    frame=16054 fps=126 q=32.0 size=   34123kB time=00:11:09.76 bitrate= 417.4kbits/s dup=1 drop=0 speed=5.27x    frame=16111 fps=126 q=32.0 size=   34232kB time=00:11:12.10 bitrate= 417.2kbits/s dup=1 drop=0 speed=5.27x    frame=16176 fps=126 q=32.0 size=   34347kB time=00:11:14.83 bitrate= 416.9kbits/s dup=1 drop=0 speed=5.27x    frame=16231 fps=126 q=32.0 size=   34471kB time=00:11:17.14 bitrate= 417.0kbits/s dup=1 drop=0 speed=5.26x    frame=16321 fps=126 q=32.0 size=   34619kB time=00:11:20.89 bitrate= 416.5kbits/s dup=1 drop=0 speed=5.27x    frame=16392 fps=126 q=32.0 size=   34754kB time=00:11:23.84 bitrate= 416.3kbits/s dup=1 drop=0 speed=5.28x    frame=16462 fps=126 q=32.0 size=   34869kB time=00:11:26.74 bitrate= 415.9kbits/s dup=1 drop=0 speed=5.28x    frame=16509 fps=126 q=32.0 size=   34942kB time=00:11:28.74 bitrate= 415.6kbits/s dup=1 drop=0 speed=5.27x    frame=16598 fps=127 q=32.0 size=   35070kB time=00:11:32.41 bitrate= 414.9kbits/s dup=1 drop=0 speed=5.28x    frame=16669 fps=127 q=32.0 size=   35161kB time=00:11:35.40 bitrate= 414.2kbits/s dup=1 drop=0 speed=5.28x    frame=16729 fps=127 q=32.0 size=   35267kB time=00:11:37.87 bitrate= 414.0kbits/s dup=1 drop=0 speed=5.28x    frame=16799 fps=127 q=32.0 size=   35376kB time=00:11:40.86 bitrate= 413.5kbits/s dup=1 drop=0 speed=5.28x    frame=16877 fps=127 q=32.0 size=   35473kB time=00:11:44.06 bitrate= 412.7kbits/s dup=1 drop=0 speed=5.29x    frame=16963 fps=127 q=32.0 size=   35563kB time=00:11:47.64 bitrate= 411.7kbits/s dup=1 drop=0 speed=5.29x    frame=17064 fps=127 q=32.0 size=   35738kB time=00:11:51.87 bitrate= 411.3kbits/s dup=1 drop=0 speed= 5.3x    frame=17142 fps=127 q=32.0 size=   35881kB time=00:11:55.11 bitrate= 411.0kbits/s dup=1 drop=0 speed=5.31x    frame=17227 fps=127 q=32.0 size=   35970kB time=00:11:58.65 bitrate= 410.0kbits/s dup=1 drop=0 speed=5.31x    frame=17323 fps=128 q=32.0 size=   36133kB time=00:12:02.66 bitrate= 409.6kbits/s dup=1 drop=0 speed=5.32x    frame=17419 fps=128 q=32.0 size=   36262kB time=00:12:06.67 bitrate= 408.8kbits/s dup=1 drop=0 speed=5.33x    frame=17513 fps=128 q=32.0 size=   36369kB time=00:12:10.60 bitrate= 407.8kbits/s dup=1 drop=0 speed=5.33x    frame=17607 fps=128 q=32.0 size=   36551kB time=00:12:14.52 bitrate= 407.6kbits/s dup=1 drop=0 speed=5.34x    frame=17672 fps=128 q=32.0 size=   36761kB time=00:12:17.25 bitrate= 408.5kbits/s dup=1 drop=0 speed=5.34x    frame=17767 fps=128 q=32.0 size=   36918kB time=00:12:21.18 bitrate= 408.0kbits/s dup=1 drop=0 speed=5.35x    frame=17862 fps=128 q=32.0 size=   37093kB time=00:12:25.15 bitrate= 407.8kbits/s dup=1 drop=0 speed=5.36x    frame=17935 fps=128 q=32.0 size=   37207kB time=00:12:28.18 bitrate= 407.4kbits/s dup=1 drop=0 speed=5.36x    frame=17987 fps=128 q=32.0 size=   37319kB time=00:12:30.35 bitrate= 407.4kbits/s dup=1 drop=0 speed=5.35x    frame=18084 fps=129 q=32.0 size=   37474kB time=00:12:34.41 bitrate= 406.9kbits/s dup=1 drop=0 speed=5.36x    frame=18149 fps=129 q=32.0 size=   37583kB time=00:12:37.14 bitrate= 406.6kbits/s dup=1 drop=0 speed=5.36x    frame=18200 fps=128 q=32.0 size=   37647kB time=00:12:39.23 bitrate= 406.2kbits/s dup=1 drop=0 speed=5.36x    frame=18280 fps=129 q=32.0 size=   37790kB time=00:12:42.60 bitrate= 405.9kbits/s dup=1 drop=0 speed=5.36x    frame=18369 fps=129 q=32.0 size=   37892kB time=00:12:46.31 bitrate= 405.1kbits/s dup=1 drop=0 speed=5.37x    frame=18427 fps=129 q=32.0 size=   38003kB time=00:12:48.70 bitrate= 405.0kbits/s dup=1 drop=0 speed=5.37x    frame=18502 fps=129 q=32.0 size=   38156kB time=00:12:51.81 bitrate= 405.0kbits/s dup=1 drop=0 speed=5.37x    frame=18588 fps=129 q=32.0 size=   38289kB time=00:12:55.44 bitrate= 404.5kbits/s dup=1 drop=0 speed=5.38x    frame=18656 fps=129 q=32.0 size=   38425kB time=00:12:58.26 bitrate= 404.5kbits/s dup=1 drop=0 speed=5.38x    frame=18811 fps=130 q=32.0 size=   38544kB time=00:13:04.74 bitrate= 402.4kbits/s dup=1 drop=0 speed= 5.4x    frame=18954 fps=130 q=32.0 size=   38660kB time=00:13:10.72 bitrate= 400.5kbits/s dup=1 drop=0 speed=5.43x    frame=19025 fps=130 q=32.0 size=   38830kB time=00:13:13.66 bitrate= 400.8kbits/s dup=1 drop=0 speed=5.43x    frame=19104 fps=130 q=32.0 size=   38942kB time=00:13:16.95 bitrate= 400.3kbits/s dup=1 drop=0 speed=5.43x    frame=19193 fps=130 q=32.0 size=   39102kB time=00:13:20.66 bitrate= 400.1kbits/s dup=1 drop=0 speed=5.44x    frame=19292 fps=131 q=32.0 size=   39238kB time=00:13:24.80 bitrate= 399.4kbits/s dup=1 drop=0 speed=5.45x    frame=19340 fps=130 q=32.0 size=   39338kB time=00:13:26.80 bitrate= 399.4kbits/s dup=1 drop=0 speed=5.44x    frame=19388 fps=130 q=32.0 size=   39486kB time=00:13:28.81 bitrate= 399.9kbits/s dup=1 drop=0 speed=5.44x    frame=19438 fps=130 q=32.0 size=   39608kB time=00:13:30.90 bitrate= 400.1kbits/s dup=1 drop=0 speed=5.43x    frame=19496 fps=130 q=32.0 size=   39725kB time=00:13:33.29 bitrate= 400.1kbits/s dup=1 drop=0 speed=5.43x    frame=19554 fps=130 q=32.0 size=   39892kB time=00:13:35.72 bitrate= 400.6kbits/s dup=1 drop=0 speed=5.43x    frame=19621 fps=130 q=32.0 size=   40004kB time=00:13:38.53 bitrate= 400.4kbits/s dup=1 drop=0 speed=5.43x    frame=19663 fps=130 q=32.0 size=   40130kB time=00:13:40.28 bitrate= 400.8kbits/s dup=1 drop=0 speed=5.42x    frame=19731 fps=130 q=32.0 size=   40247kB time=00:13:43.10 bitrate= 400.6kbits/s dup=1 drop=0 speed=5.42x    frame=19787 fps=130 q=32.0 size=   40362kB time=00:13:45.45 bitrate= 400.6kbits/s dup=1 drop=0 speed=5.42x    frame=19853 fps=130 q=32.0 size=   40512kB time=00:13:48.18 bitrate= 400.7kbits/s dup=1 drop=0 speed=5.42x    frame=19914 fps=130 q=32.0 size=   40627kB time=00:13:50.74 bitrate= 400.6kbits/s dup=1 drop=0 speed=5.42x    frame=20008 fps=130 q=32.0 size=   40752kB time=00:13:54.66 bitrate= 400.0kbits/s dup=1 drop=0 speed=5.43x    frame=20079 fps=130 q=32.0 size=   40875kB time=00:13:57.61 bitrate= 399.8kbits/s dup=1 drop=0 speed=5.43x    frame=20194 fps=130 q=32.0 size=   40995kB time=00:14:02.43 bitrate= 398.6kbits/s dup=1 drop=0 speed=5.44x    frame=20305 fps=131 q=32.0 size=   41097kB time=00:14:07.04 bitrate= 397.5kbits/s dup=1 drop=0 speed=5.45x    frame=20359 fps=131 q=32.0 size=   41207kB time=00:14:09.30 bitrate= 397.5kbits/s dup=1 drop=0 speed=5.45x    frame=20420 fps=131 q=32.0 size=   41350kB time=00:14:11.86 bitrate= 397.6kbits/s dup=1 drop=0 speed=5.45x    frame=20490 fps=131 q=32.0 size=   41484kB time=00:14:14.76 bitrate= 397.6kbits/s dup=1 drop=0 speed=5.45x    frame=20531 fps=130 q=32.0 size=   41551kB time=00:14:16.47 bitrate= 397.4kbits/s dup=1 drop=0 speed=5.44x    frame=20594 fps=130 q=32.0 size=   41650kB time=00:14:19.11 bitrate= 397.1kbits/s dup=1 drop=0 speed=5.44x    frame=20683 fps=131 q=32.0 size=   41779kB time=00:14:22.82 bitrate= 396.7kbits/s dup=1 drop=0 speed=5.45x    frame=20767 fps=131 q=32.0 size=   41898kB time=00:14:26.32 bitrate= 396.2kbits/s dup=1 drop=0 speed=5.45x    frame=20865 fps=131 q=32.0 size=   42045kB time=00:14:30.42 bitrate= 395.7kbits/s dup=1 drop=0 speed=5.46x    frame=20989 fps=131 q=32.0 size=   42166kB time=00:14:35.58 bitrate= 394.5kbits/s dup=1 drop=0 speed=5.47x    frame=21116 fps=132 q=32.0 size=   42303kB time=00:14:40.87 bitrate= 393.4kbits/s dup=1 drop=0 speed=5.49x    frame=21232 fps=132 q=32.0 size=   42421kB time=00:14:45.69 bitrate= 392.4kbits/s dup=1 drop=0 speed= 5.5x    frame=21311 fps=132 q=32.0 size=   42554kB time=00:14:49.02 bitrate= 392.1kbits/s dup=1 drop=0 speed=5.51x    frame=21372 fps=132 q=32.0 size=   42666kB time=00:14:51.54 bitrate= 392.0kbits/s dup=1 drop=0 speed= 5.5x    frame=21435 fps=132 q=32.0 size=   42791kB time=00:14:54.18 bitrate= 392.0kbits/s dup=1 drop=0 speed= 5.5x    frame=21494 fps=132 q=32.0 size=   42891kB time=00:14:56.61 bitrate= 391.9kbits/s dup=1 drop=0 speed= 5.5x    frame=21580 fps=132 q=32.0 size=   43035kB time=00:15:00.20 bitrate= 391.6kbits/s dup=1 drop=0 speed=5.51x    frame=21667 fps=132 q=32.0 size=   43170kB time=00:15:03.87 bitrate= 391.3kbits/s dup=1 drop=0 speed=5.51x    frame=21750 fps=132 q=32.0 size=   43271kB time=00:15:07.32 bitrate= 390.7kbits/s dup=1 drop=0 speed=5.52x    frame=21817 fps=132 q=32.0 size=   43401kB time=00:15:10.14 bitrate= 390.6kbits/s dup=1 drop=0 speed=5.52x    frame=21891 fps=132 q=32.0 size=   43560kB time=00:15:13.17 bitrate= 390.8kbits/s dup=1 drop=0 speed=5.52x    frame=21970 fps=132 q=32.0 size=   43692kB time=00:15:16.50 bitrate= 390.5kbits/s dup=1 drop=0 speed=5.52x    frame=22028 fps=132 q=32.0 size=   43823kB time=00:15:18.89 bitrate= 390.7kbits/s dup=1 drop=0 speed=5.52x    frame=22104 fps=132 q=32.0 size=   43960kB time=00:15:22.09 bitrate= 390.5kbits/s dup=1 drop=0 speed=5.52x    frame=22159 fps=132 q=32.0 size=   44106kB time=00:15:24.39 bitrate= 390.9kbits/s dup=1 drop=0 speed=5.52x    frame=22216 fps=132 q=32.0 size=   44250kB time=00:15:26.74 bitrate= 391.2kbits/s dup=1 drop=0 speed=5.52x    frame=22305 fps=132 q=32.0 size=   44409kB time=00:15:30.45 bitrate= 391.0kbits/s dup=1 drop=0 speed=5.52x    frame=22400 fps=133 q=32.0 size=   44519kB time=00:15:34.42 bitrate= 390.3kbits/s dup=1 drop=0 speed=5.53x    frame=22502 fps=133 q=32.0 size=   44649kB time=00:15:38.68 bitrate= 389.7kbits/s dup=1 drop=0 speed=5.54x    frame=22572 fps=133 q=32.0 size=   44779kB time=00:15:41.54 bitrate= 389.6kbits/s dup=1 drop=0 speed=5.54x    frame=22671 fps=133 q=32.0 size=   44934kB time=00:15:45.72 bitrate= 389.2kbits/s dup=1 drop=0 speed=5.55x    frame=22772 fps=133 q=32.0 size=   45041kB time=00:15:49.95 bitrate= 388.4kbits/s dup=1 drop=0 speed=5.55x    frame=22866 fps=133 q=32.0 size=   45124kB time=00:15:53.83 bitrate= 387.6kbits/s dup=1 drop=0 speed=5.56x    frame=23006 fps=134 q=32.0 size=   45206kB time=00:15:59.72 bitrate= 385.9kbits/s dup=1 drop=0 speed=5.58x    frame=23151 fps=134 q=32.0 size=   45309kB time=00:16:05.73 bitrate= 384.3kbits/s dup=1 drop=0 speed= 5.6x    frame=23272 fps=134 q=32.0 size=   45407kB time=00:16:10.81 bitrate= 383.2kbits/s dup=1 drop=0 speed=5.61x    frame=23337 fps=134 q=32.0 size=   45537kB time=00:16:13.50 bitrate= 383.2kbits/s dup=1 drop=0 speed=5.61x    frame=23434 fps=135 q=32.0 size=   45651kB time=00:16:17.55 bitrate= 382.6kbits/s dup=1 drop=0 speed=5.62x    frame=23552 fps=135 q=32.0 size=   45760kB time=00:16:22.46 bitrate= 381.6kbits/s dup=1 drop=0 speed=5.63x    frame=23669 fps=135 q=32.0 size=   45876kB time=00:16:27.37 bitrate= 380.6kbits/s dup=1 drop=0 speed=5.64x    frame=23792 fps=135 q=32.0 size=   45986kB time=00:16:32.49 bitrate= 379.6kbits/s dup=1 drop=0 speed=5.65x    frame=23878 fps=136 q=32.0 size=   46104kB time=00:16:36.07 bitrate= 379.2kbits/s dup=1 drop=0 speed=5.66x    frame=24009 fps=136 q=32.0 size=   46214kB time=00:16:41.53 bitrate= 378.0kbits/s dup=1 drop=0 speed=5.67x    frame=24130 fps=136 q=32.0 size=   46357kB time=00:16:46.57 bitrate= 377.3kbits/s dup=1 drop=0 speed=5.68x    frame=24262 fps=137 q=32.0 size=   46472kB time=00:16:52.07 bitrate= 376.2kbits/s dup=1 drop=0 speed= 5.7x    frame=24364 fps=137 q=32.0 size=   46646kB time=00:16:56.34 bitrate= 376.0kbits/s dup=1 drop=0 speed=5.71x    frame=24508 fps=137 q=32.0 size=   46761kB time=00:17:02.35 bitrate= 374.7kbits/s dup=1 drop=0 speed=5.72x    frame=24626 fps=137 q=32.0 size=   46881kB time=00:17:07.26 bitrate= 373.9kbits/s dup=1 drop=0 speed=5.74x    frame=24704 fps=138 q=32.0 size=   47026kB time=00:17:10.50 bitrate= 373.8kbits/s dup=1 drop=0 speed=5.74x    frame=24767 fps=137 q=32.0 size=   47166kB time=00:17:13.15 bitrate= 374.0kbits/s dup=1 drop=0 speed=5.74x    frame=24901 fps=138 q=32.0 size=   47279kB time=00:17:18.74 bitrate= 372.9kbits/s dup=1 drop=0 speed=5.75x    frame=24960 fps=138 q=32.0 size=   47385kB time=00:17:21.17 bitrate= 372.8kbits/s dup=1 drop=0 speed=5.75x    frame=25031 fps=138 q=32.0 size=   47475kB time=00:17:24.16 bitrate= 372.5kbits/s dup=1 drop=0 speed=5.75x    frame=25107 fps=138 q=32.0 size=   47579kB time=00:17:27.31 bitrate= 372.2kbits/s dup=1 drop=0 speed=5.75x    frame=25202 fps=138 q=32.0 size=   47686kB time=00:17:31.28 bitrate= 371.6kbits/s dup=1 drop=0 speed=5.76x    frame=25337 fps=138 q=32.0 size=   47792kB time=00:17:36.91 bitrate= 370.4kbits/s dup=1 drop=0 speed=5.77x    frame=25494 fps=139 q=32.0 size=   47905kB time=00:17:43.44 bitrate= 369.0kbits/s dup=1 drop=0 speed=5.79x    frame=25633 fps=139 q=29.0 size=   48001kB time=00:17:49.24 bitrate= 367.8kbits/s dup=1 drop=0 speed=5.81x    frame=25686 fps=139 q=32.0 size=   48162kB time=00:17:51.46 bitrate= 368.2kbits/s dup=1 drop=0 speed= 5.8x    frame=25762 fps=139 q=32.0 size=   48301kB time=00:17:54.66 bitrate= 368.2kbits/s dup=1 drop=0 speed= 5.8x    frame=25854 fps=139 q=32.0 size=   48453kB time=00:17:58.50 bitrate= 368.0kbits/s dup=1 drop=0 speed=5.81x    frame=25928 fps=139 q=32.0 size=   48552kB time=00:18:01.57 bitrate= 367.7kbits/s dup=1 drop=0 speed=5.81x    frame=25973 fps=139 q=32.0 size=   48687kB time=00:18:03.45 bitrate= 368.1kbits/s dup=1 drop=0 speed= 5.8x    frame=26069 fps=139 q=32.0 size=   48832kB time=00:18:07.46 bitrate= 367.9kbits/s dup=1 drop=0 speed=5.81x    frame=26145 fps=139 q=32.0 size=   48923kB time=00:18:10.62 bitrate= 367.5kbits/s dup=1 drop=0 speed=5.81x    frame=26208 fps=139 q=32.0 size=   48998kB time=00:18:13.22 bitrate= 367.2kbits/s dup=1 drop=0 speed=5.81x    frame=26293 fps=139 q=32.0 size=   49078kB time=00:18:16.81 bitrate= 366.6kbits/s dup=1 drop=0 speed=5.81x    frame=26390 fps=139 q=32.0 size=   49165kB time=00:18:20.82 bitrate= 365.9kbits/s dup=1 drop=0 speed=5.82x    frame=26518 fps=140 q=32.0 size=   49260kB time=00:18:26.19 bitrate= 364.8kbits/s dup=1 drop=0 speed=5.83x    frame=26646 fps=140 q=32.0 size=   49344kB time=00:18:31.53 bitrate= 363.7kbits/s dup=1 drop=0 speed=5.84x    frame=26775 fps=140 q=32.0 size=   49470kB time=00:18:36.90 bitrate= 362.8kbits/s dup=1 drop=0 speed=5.86x    frame=26925 fps=141 q=32.0 size=   49569kB time=00:18:43.13 bitrate= 361.5kbits/s dup=1 drop=0 speed=5.87x    frame=27046 fps=141 q=32.0 size=   49689kB time=00:18:48.21 bitrate= 360.8kbits/s dup=1 drop=0 speed=5.88x    frame=27060 fps=141 q=32.0 size=   49699kB time=00:18:48.81 bitrate= 360.7kbits/s dup=1 drop=0 speed=5.86x    frame=27153 fps=141 q=32.0 size=   49844kB time=00:18:52.65 bitrate= 360.5kbits/s dup=1 drop=0 speed=5.87x    frame=27199 fps=141 q=32.0 size=   50046kB time=00:18:54.57 bitrate= 361.4kbits/s dup=1 drop=0 speed=5.86x    frame=27259 fps=140 q=32.0 size=   50203kB time=00:18:57.08 bitrate= 361.7kbits/s dup=1 drop=0 speed=5.86x    frame=27314 fps=140 q=32.0 size=   50328kB time=00:18:59.39 bitrate= 361.8kbits/s dup=1 drop=0 speed=5.86x    frame=27395 fps=140 q=32.0 size=   50425kB time=00:19:02.76 bitrate= 361.5kbits/s dup=1 drop=0 speed=5.86x    frame=27459 fps=140 q=32.0 size=   50524kB time=00:19:05.40 bitrate= 361.4kbits/s dup=1 drop=0 speed=5.86x    frame=27524 fps=140 q=32.0 size=   50605kB time=00:19:08.13 bitrate= 361.1kbits/s dup=1 drop=0 speed=5.86x    frame=27590 fps=140 q=32.0 size=   50687kB time=00:19:10.91 bitrate= 360.8kbits/s dup=1 drop=0 speed=5.85x    frame=27667 fps=140 q=32.0 size=   50763kB time=00:19:14.11 bitrate= 360.3kbits/s dup=1 drop=0 speed=5.86x    frame=27722 fps=140 q=32.0 size=   50895kB time=00:19:16.37 bitrate= 360.6kbits/s dup=1 drop=0 speed=5.85x    frame=27796 fps=140 q=32.0 size=   50998kB time=00:19:19.53 bitrate= 360.3kbits/s dup=1 drop=0 speed=5.85x    frame=27928 fps=141 q=32.0 size=   51095kB time=00:19:24.99 bitrate= 359.3kbits/s dup=1 drop=0 speed=5.87x    frame=28052 fps=141 q=32.0 size=   51196kB time=00:19:30.19 bitrate= 358.4kbits/s dup=1 drop=0 speed=5.88x    frame=28116 fps=141 q=32.0 size=   51302kB time=00:19:32.84 bitrate= 358.3kbits/s dup=1 drop=0 speed=5.88x    frame=28200 fps=141 q=32.0 size=   51412kB time=00:19:36.34 bitrate= 358.0kbits/s dup=1 drop=0 speed=5.88x    frame=28286 fps=141 q=32.0 size=   51508kB time=00:19:39.92 bitrate= 357.6kbits/s dup=1 drop=0 speed=5.88x    frame=28365 fps=141 q=32.0 size=   51617kB time=00:19:43.21 bitrate= 357.4kbits/s dup=1 drop=0 speed=5.88x    frame=28424 fps=141 q=32.0 size=   51712kB time=00:19:45.68 bitrate= 357.3kbits/s dup=1 drop=0 speed=5.88x    frame=28483 fps=141 q=32.0 size=   51811kB time=00:19:48.16 bitrate= 357.2kbits/s dup=1 drop=0 speed=5.88x    frame=28542 fps=141 q=32.0 size=   51922kB time=00:19:50.59 bitrate= 357.3kbits/s dup=1 drop=0 speed=5.87x    frame=28616 fps=141 q=32.0 size=   52051kB time=00:19:53.70 bitrate= 357.2kbits/s dup=1 drop=0 speed=5.88x    frame=28698 fps=141 q=32.0 size=   52145kB time=00:19:57.07 bitrate= 356.8kbits/s dup=1 drop=0 speed=5.88x    frame=28768 fps=141 q=32.0 size=   52239kB time=00:20:00.02 bitrate= 356.6kbits/s dup=1 drop=0 speed=5.88x    frame=28855 fps=141 q=32.0 size=   52323kB time=00:20:03.64 bitrate= 356.1kbits/s dup=1 drop=0 speed=5.88x    frame=28912 fps=141 q=32.0 size=   52430kB time=00:20:06.03 bitrate= 356.1kbits/s dup=1 drop=0 speed=5.88x    frame=28959 fps=141 q=32.0 size=   52563kB time=00:20:08.00 bitrate= 356.5kbits/s dup=1 drop=0 speed=5.87x    frame=29034 fps=141 q=32.0 size=   52666kB time=00:20:11.11 bitrate= 356.2kbits/s dup=1 drop=0 speed=5.87x    frame=29118 fps=141 q=32.0 size=   52737kB time=00:20:14.61 bitrate= 355.7kbits/s dup=1 drop=0 speed=5.87x    frame=29177 fps=141 q=32.0 size=   52834kB time=00:20:17.08 bitrate= 355.6kbits/s dup=1 drop=0 speed=5.87x    frame=29233 fps=141 q=32.0 size=   52918kB time=00:20:19.43 bitrate= 355.5kbits/s dup=1 drop=0 speed=5.87x    frame=29294 fps=141 q=32.0 size=   53026kB time=00:20:21.95 bitrate= 355.5kbits/s dup=1 drop=0 speed=5.87x    frame=29356 fps=141 q=32.0 size=   53095kB time=00:20:24.55 bitrate= 355.2kbits/s dup=1 drop=0 speed=5.86x    frame=29438 fps=141 q=32.0 size=   53182kB time=00:20:27.96 bitrate= 354.8kbits/s dup=1 drop=0 speed=5.87x    frame=29530 fps=141 q=32.0 size=   53249kB time=00:20:31.80 bitrate= 354.1kbits/s dup=1 drop=0 speed=5.87x    frame=29585 fps=141 q=32.0 size=   53364kB time=00:20:34.11 bitrate= 354.2kbits/s dup=1 drop=0 speed=5.87x    frame=29635 fps=141 q=32.0 size=   53448kB time=00:20:36.20 bitrate= 354.2kbits/s dup=1 drop=0 speed=5.86x    frame=29694 fps=141 q=32.0 size=   53539kB time=00:20:38.63 bitrate= 354.1kbits/s dup=1 drop=0 speed=5.86x    frame=29773 fps=141 q=32.0 size=   53615kB time=00:20:41.92 bitrate= 353.7kbits/s dup=1 drop=0 speed=5.86x    frame=29850 fps=141 q=32.0 size=   53716kB time=00:20:45.16 bitrate= 353.4kbits/s dup=1 drop=0 speed=5.86x    frame=29912 fps=141 q=32.0 size=   53801kB time=00:20:47.72 bitrate= 353.2kbits/s dup=1 drop=0 speed=5.86x    frame=29980 fps=141 q=32.0 size=   53882kB time=00:20:50.58 bitrate= 353.0kbits/s dup=1 drop=0 speed=5.86x    frame=30087 fps=141 q=32.0 size=   53979kB time=00:20:55.01 bitrate= 352.3kbits/s dup=1 drop=0 speed=5.87x    frame=30174 fps=141 q=32.0 size=   54105kB time=00:20:58.64 bitrate= 352.1kbits/s dup=1 drop=0 speed=5.87x    frame=30281 fps=141 q=32.0 size=   54211kB time=00:21:03.12 bitrate= 351.6kbits/s dup=1 drop=0 speed=5.88x    frame=30373 fps=141 q=32.0 size=   54280kB time=00:21:06.96 bitrate= 351.0kbits/s dup=1 drop=0 speed=5.88x    frame=30431 fps=141 q=32.0 size=   54390kB time=00:21:09.39 bitrate= 351.0kbits/s dup=1 drop=0 speed=5.88x    frame=30511 fps=141 q=32.0 size=   54493kB time=00:21:12.72 bitrate= 350.7kbits/s dup=1 drop=0 speed=5.88x    frame=30603 fps=141 q=32.0 size=   54568kB time=00:21:16.56 bitrate= 350.2kbits/s dup=1 drop=0 speed=5.89x    frame=30675 fps=141 q=32.0 size=   54696kB time=00:21:19.55 bitrate= 350.2kbits/s dup=1 drop=0 speed=5.89x    frame=30736 fps=141 q=32.0 size=   54808kB time=00:21:22.11 bitrate= 350.2kbits/s dup=1 drop=0 speed=5.88x    frame=30784 fps=141 q=32.0 size=   54963kB time=00:21:24.11 bitrate= 350.6kbits/s dup=1 drop=0 speed=5.88x    frame=30826 fps=141 q=32.0 size=   55078kB time=00:21:25.86 bitrate= 350.9kbits/s dup=1 drop=0 speed=5.87x    frame=30880 fps=141 q=32.0 size=   55249kB time=00:21:28.08 bitrate= 351.4kbits/s dup=1 drop=0 speed=5.87x    frame=30931 fps=141 q=32.0 size=   55370kB time=00:21:30.21 bitrate= 351.6kbits/s dup=1 drop=0 speed=5.86x    frame=30983 fps=140 q=32.0 size=   55494kB time=00:21:32.39 bitrate= 351.8kbits/s dup=1 drop=0 speed=5.86x    frame=31031 fps=140 q=32.0 size=   55587kB time=00:21:34.40 bitrate= 351.8kbits/s dup=1 drop=0 speed=5.85x    frame=31062 fps=140 q=32.0 size=   55710kB time=00:21:35.72 bitrate= 352.2kbits/s dup=1 drop=0 speed=5.85x    frame=31089 fps=140 q=32.0 size=   55811kB time=00:21:36.83 bitrate= 352.6kbits/s dup=1 drop=0 speed=5.84x    frame=31127 fps=140 q=32.0 size=   55945kB time=00:21:38.41 bitrate= 353.0kbits/s dup=1 drop=0 speed=5.83x    frame=31160 fps=140 q=32.0 size=   56118kB time=00:21:39.77 bitrate= 353.7kbits/s dup=1 drop=0 speed=5.82x    frame=31220 fps=140 q=32.0 size=   56257kB time=00:21:42.29 bitrate= 353.9kbits/s dup=1 drop=0 speed=5.82x    frame=31267 fps=139 q=32.0 size=   56420kB time=00:21:44.25 bitrate= 354.4kbits/s dup=1 drop=0 speed=5.82x    frame=31321 fps=139 q=32.0 size=   56538kB time=00:21:46.51 bitrate= 354.5kbits/s dup=1 drop=0 speed=5.81x    frame=31379 fps=139 q=32.0 size=   56643kB time=00:21:48.95 bitrate= 354.5kbits/s dup=1 drop=0 speed=5.81x    frame=31435 fps=139 q=32.0 size=   56746kB time=00:21:51.25 bitrate= 354.5kbits/s dup=1 drop=0 speed=5.81x    frame=31467 fps=139 q=32.0 size=   56893kB time=00:21:52.61 bitrate= 355.1kbits/s dup=1 drop=0 speed= 5.8x    frame=31516 fps=139 q=32.0 size=   57063kB time=00:21:54.66 bitrate= 355.6kbits/s dup=1 drop=0 speed= 5.8x    frame=31558 fps=139 q=32.0 size=   57180kB time=00:21:56.41 bitrate= 355.8kbits/s dup=1 drop=0 speed=5.79x    frame=31607 fps=139 q=32.0 size=   57290kB time=00:21:58.42 bitrate= 356.0kbits/s dup=1 drop=0 speed=5.79x    frame=31673 fps=139 q=32.0 size=   57383kB time=00:22:01.19 bitrate= 355.8kbits/s dup=1 drop=0 speed=5.79x    frame=31738 fps=139 q=32.0 size=   57560kB time=00:22:03.88 bitrate= 356.2kbits/s dup=1 drop=0 speed=5.78x    frame=31824 fps=139 q=32.0 size=   57691kB time=00:22:07.46 bitrate= 356.0kbits/s dup=1 drop=0 speed=5.79x    frame=31893 fps=139 q=32.0 size=   57850kB time=00:22:10.36 bitrate= 356.2kbits/s dup=1 drop=0 speed=5.79x    frame=31956 fps=139 q=32.0 size=   58000kB time=00:22:12.97 bitrate= 356.4kbits/s dup=1 drop=0 speed=5.78x    frame=32022 fps=139 q=32.0 size=   58136kB time=00:22:15.74 bitrate= 356.5kbits/s dup=1 drop=0 speed=5.78x    frame=32071 fps=139 q=32.0 size=   58278kB time=00:22:17.79 bitrate= 356.9kbits/s dup=1 drop=0 speed=5.78x    frame=32127 fps=139 q=32.0 size=   58425kB time=00:22:20.13 bitrate= 357.1kbits/s dup=1 drop=0 speed=5.78x    frame=32194 fps=138 q=32.0 size=   58549kB time=00:22:22.91 bitrate= 357.2kbits/s dup=1 drop=0 speed=5.78x    frame=32236 fps=138 q=32.0 size=   58692kB time=00:22:24.66 bitrate= 357.6kbits/s dup=1 drop=0 speed=5.77x    frame=32298 fps=138 q=32.0 size=   58854kB time=00:22:27.26 bitrate= 357.9kbits/s dup=1 drop=0 speed=5.77x    frame=32367 fps=138 q=32.0 size=   59022kB time=00:22:30.12 bitrate= 358.1kbits/s dup=1 drop=0 speed=5.77x    frame=32456 fps=138 q=32.0 size=   59146kB time=00:22:33.83 bitrate= 357.9kbits/s dup=1 drop=0 speed=5.77x    frame=32525 fps=138 q=32.0 size=   59264kB time=00:22:36.73 bitrate= 357.8kbits/s dup=1 drop=0 speed=5.77x    frame=32592 fps=138 q=32.0 size=   59394kB time=00:22:39.51 bitrate= 357.9kbits/s dup=1 drop=0 speed=5.77x    frame=32681 fps=138 q=32.0 size=   59497kB time=00:22:43.22 bitrate= 357.5kbits/s dup=1 drop=0 speed=5.78x    frame=32799 fps=139 q=32.0 size=   59612kB time=00:22:48.12 bitrate= 356.9kbits/s dup=1 drop=0 speed=5.78x    frame=32870 fps=139 q=32.0 size=   59701kB time=00:22:51.11 bitrate= 356.7kbits/s dup=1 drop=0 speed=5.78x    frame=32938 fps=139 q=32.0 size=   59816kB time=00:22:53.93 bitrate= 356.7kbits/s dup=1 drop=0 speed=5.78x    frame=33000 fps=139 q=32.0 size=   59926kB time=00:22:56.53 bitrate= 356.6kbits/s dup=1 drop=0 speed=5.78x    frame=33089 fps=139 q=32.0 size=   60055kB time=00:23:00.24 bitrate= 356.4kbits/s dup=1 drop=0 speed=5.79x    frame=33175 fps=139 q=32.0 size=   60132kB time=00:23:03.83 bitrate= 356.0kbits/s dup=1 drop=0 speed=5.79x    frame=33264 fps=139 q=32.0 size=   60230kB time=00:23:07.54 bitrate= 355.6kbits/s dup=1 drop=0 speed=5.79x    frame=33372 fps=139 q=32.0 size=   60351kB time=00:23:12.06 bitrate= 355.2kbits/s dup=1 drop=0 speed= 5.8x    frame=33454 fps=139 q=32.0 size=   60456kB time=00:23:15.47 bitrate= 354.9kbits/s dup=1 drop=0 speed= 5.8x    frame=33520 fps=139 q=32.0 size=   60547kB time=00:23:18.20 bitrate= 354.7kbits/s dup=1 drop=0 speed= 5.8x    frame=33592 fps=139 q=32.0 size=   60657kB time=00:23:21.19 bitrate= 354.6kbits/s dup=1 drop=0 speed= 5.8x    frame=33667 fps=139 q=32.0 size=   60751kB time=00:23:24.35 bitrate= 354.4kbits/s dup=1 drop=0 speed= 5.8x    frame=33728 fps=139 q=32.0 size=   60887kB time=00:23:26.91 bitrate= 354.5kbits/s dup=1 drop=0 speed= 5.8x    frame=33799 fps=139 q=32.0 size=   61018kB time=00:23:29.85 bitrate= 354.5kbits/s dup=1 drop=0 speed= 5.8x    frame=33875 fps=139 q=32.0 size=   61113kB time=00:23:33.01 bitrate= 354.3kbits/s dup=1 drop=0 speed= 5.8x    frame=33929 fps=139 q=32.0 size=   61205kB time=00:23:35.27 bitrate= 354.3kbits/s dup=1 drop=0 speed= 5.8x    frame=34000 fps=139 q=32.0 size=   61311kB time=00:23:38.26 bitrate= 354.1kbits/s dup=1 drop=0 speed= 5.8x    frame=34050 fps=139 q=32.0 size=   61390kB time=00:23:40.31 bitrate= 354.1kbits/s dup=1 drop=0 speed=5.79x    frame=34101 fps=139 q=32.0 size=   61478kB time=00:23:42.44 bitrate= 354.1kbits/s dup=1 drop=0 speed=5.79x    frame=34152 fps=139 q=32.0 size=   61571kB time=00:23:44.57 bitrate= 354.1kbits/s dup=1 drop=0 speed=5.79x    frame=34212 fps=139 q=32.0 size=   61669kB time=00:23:47.09 bitrate= 354.0kbits/s dup=1 drop=0 speed=5.79x    frame=34280 fps=139 q=32.0 size=   61764kB time=00:23:49.91 bitrate= 353.8kbits/s dup=1 drop=0 speed=5.79x    frame=34327 fps=139 q=32.0 size=   61958kB time=00:23:51.87 bitrate= 354.5kbits/s dup=1 drop=0 speed=5.78x    frame=34387 fps=139 q=32.0 size=   62109kB time=00:23:54.39 bitrate= 354.7kbits/s dup=1 drop=0 speed=5.78x    frame=34453 fps=139 q=32.0 size=   62209kB time=00:23:57.16 bitrate= 354.6kbits/s dup=1 drop=0 speed=5.78x    frame=34514 fps=138 q=32.0 size=   62312kB time=00:23:59.68 bitrate= 354.6kbits/s dup=1 drop=0 speed=5.78x    frame=34552 fps=138 q=32.0 size=   62431kB time=00:24:01.25 bitrate= 354.9kbits/s dup=1 drop=0 speed=5.77x    frame=34617 fps=138 q=32.0 size=   62582kB time=00:24:03.99 bitrate= 355.0kbits/s dup=1 drop=0 speed=5.77x    frame=34692 fps=138 q=32.0 size=   62701kB time=00:24:07.10 bitrate= 354.9kbits/s dup=1 drop=0 speed=5.77x    frame=34756 fps=138 q=32.0 size=   62827kB time=00:24:09.75 bitrate= 355.0kbits/s dup=1 drop=0 speed=5.77x    frame=34837 fps=138 q=32.0 size=   62982kB time=00:24:13.16 bitrate= 355.1kbits/s dup=1 drop=0 speed=5.77x    frame=35004 fps=139 q=32.0 size=   63113kB time=00:24:20.11 bitrate= 354.1kbits/s dup=1 drop=0 speed=5.79x    [mp4 @ 0x3b8af20] Starting second pass: moving the moov atom to the beginning of the file
frame=35198 fps=139 q=-1.0 Lsize=   64076kB time=00:24:28.01 bitrate= 357.6kbits/s dup=1 drop=0 speed=5.81x    
video:53801kB audio:9442kB subtitle:0kB other streams:0kB global headers:0kB muxing overhead: 1.317420%
[libx264 @ 0x3c15080] frame I:338   Avg QP:21.59  size: 17439
[libx264 @ 0x3c15080] frame P:12160 Avg QP:25.48  size:  3190
[libx264 @ 0x3c15080] frame B:22700 Avg QP:28.54  size:   458
[libx264 @ 0x3c15080] consecutive B-frames:  3.8% 12.0% 56.1% 28.2%
[libx264 @ 0x3c15080] mb I  I16..4: 21.2% 62.0% 16.8%
[libx264 @ 0x3c15080] mb P  I16..4:  4.4%  5.2%  1.4%  P16..4: 33.7%  5.5%  4.3%  0.2%  0.0%    skip:45.3%
[libx264 @ 0x3c15080] mb B  I16..4:  0.3%  0.4%  0.1%  B16..8: 14.9%  1.1%  0.2%  direct: 0.4%  skip:82.6%  L0:38.7% L1:58.8% BI: 2.5%
[libx264 @ 0x3c15080] 8x8 transform intra:50.4% inter:61.5%
[libx264 @ 0x3c15080] coded y,uvDC,uvAC intra: 37.4% 54.3% 9.5% inter: 2.7% 4.8% 0.0%
[libx264 @ 0x3c15080] i16 v,h,dc,p: 38% 28% 21% 13%
[libx264 @ 0x3c15080] i8 v,h,dc,ddl,ddr,vr,hd,vl,hu: 19% 18% 36%  5%  4%  4%  4%  5%  6%
[libx264 @ 0x3c15080] i4 v,h,dc,ddl,ddr,vr,hd,vl,hu: 27% 17% 22%  6%  6%  7%  6%  6%  4%
[libx264 @ 0x3c15080] i8c dc,h,v,p: 49% 24% 20%  7%
[libx264 @ 0x3c15080] Weighted P-Frames: Y:2.8% UV:2.2%
[libx264 @ 0x3c15080] ref P L0: 65.5% 10.3% 11.8%  3.6%  2.7%  2.3%  1.9%  1.2%  0.8%  0.0%
[libx264 @ 0x3c15080] ref B L0: 83.0%  7.6%  3.8%  1.8%  1.6%  1.3%  0.9%
[libx264 @ 0x3c15080] ref B L1: 92.3%  7.7%
[libx264 @ 0x3c15080] kb/s:300.21
